<?xml version="1.0" encoding="UTF-8" standalone="no"?>
<!-- Created with Inkscape (http://www.inkscape.org/) -->

<svg
   version="1.1"
   id="svg41"
   xml:space="preserve"
   width="1173.8906"
   height="697.33331"
   viewBox="0 0 1173.8906 697.33331"
   sodipodi:docname="levels-11c-11b.svg"
   inkscape:version="1.1.2 (0a00cf5339, 2022-02-04)"
   xmlns:inkscape="http://www.inkscape.org/namespaces/inkscape"
   xmlns:sodipodi="http://sodipodi.sourceforge.net/DTD/sodipodi-0.dtd"
   xmlns="http://www.w3.org/2000/svg"
   xmlns:svg="http://www.w3.org/2000/svg"><defs
     id="defs45"><clipPath
       clipPathUnits="userSpaceOnUse"
       id="clipPath57"><path
         d="M 0,0 H 881 V 523 H 0 Z"
         id="path55" /></clipPath></defs><sodipodi:namedview
     id="namedview43"
     pagecolor="#ffffff"
     bordercolor="#666666"
     borderopacity="1.0"
     inkscape:pageshadow="2"
     inkscape:pageopacity="0.0"
     inkscape:pagecheckerboard="0"
     showgrid="false"
     inkscape:zoom="1.2590823"
     inkscape:cx="667.94683"
     inkscape:cy="324.83978"
     inkscape:window-width="1920"
     inkscape:window-height="1080"
     inkscape:window-x="0"
     inkscape:window-y="0"
     inkscape:window-maximized="1"
     inkscape:current-layer="g47" /><g
     id="g47"
     inkscape:groupmode="layer"
     inkscape:label="levels-11c-11b"
     transform="matrix(1.3333333,0,0,1.3333333,0,1.41e-5)"><g
       id="g49"><g
         id="g51"><g
           id="g53" /><g
           id="g269"><g
             clip-path="url(#clipPath57)"
             opacity="0.99"
             id="g267"><g
               id="g265"><g
                 id="g61"><path
                   d="m 39.516,517.469 h 300"
                   style="fill:none;stroke:#0000ff;stroke-width:1;stroke-linecap:square;stroke-linejoin:miter;stroke-miterlimit:10;stroke-dasharray:none;stroke-opacity:1"
                   id="path59" /></g><path
                 d="m 2.719,514 c -1,0 -1.578,0.281 -2.344,0.719 l 0.375,0.75 c 0.703,-0.375 1.141,-0.594 1.969,-0.594 0.984,0 1.547,0.281 1.547,1.359 0,1.016 -0.828,1.547 -2.454,1.61 v 0.875 c 1.516,0 2.891,0.156 2.891,1.5 0,1 -0.656,1.5 -1.984,1.5 -0.953,0 -1.563,-0.281 -2.344,-0.672 L 0,521.875 c 0.938,0.437 1.562,0.719 2.797,0.719 1.625,0 2.906,-0.766 2.906,-2.328 0,-1.266 -0.719,-1.844 -1.656,-2.157 0.609,-0.343 1.219,-1.047 1.219,-1.968 C 5.266,514.688 4.203,514 2.719,514 Z M 9.543,514.141 6.637,523 h 1 l 2.906,-8.859 z m 2.062,0.671 0.391,0.75 c 0.5,-0.328 1.063,-0.687 1.922,-0.687 1,0 1.719,0.516 1.719,1.516 0,1.171 -0.938,2.218 -3.844,5.437 v 0.641 h 4.922 v -0.875 h -3.531 c 2.875,-3.219 3.437,-4.063 3.437,-5.203 0,-1.453 -1.078,-2.391 -2.547,-2.391 -1.172,0 -1.687,0.328 -2.469,0.812 z m 6.59,3.344 v 0.875 h 3.485 v -0.875 h -3.485"
                 style="fill:#404040;fill-opacity:1;fill-rule:nonzero;stroke:none"
                 id="path63" /><g
                 id="g67"><path
                   d="m 39.516,380.469 h 300"
                   style="fill:none;stroke:#0000ff;stroke-width:1;stroke-linecap:square;stroke-linejoin:miter;stroke-miterlimit:10;stroke-dasharray:none;stroke-opacity:1"
                   id="path65" /></g><path
                 d="m 5.828,384.594 h -2 v -7.422 h -1.14 l -2.219,1.047 0.297,0.812 2.062,-0.984 v 6.547 H 0.609 v 0.875 H 5.828 Z M 9.543,377.141 6.637,386 h 1 l 2.906,-8.859 z m 2.062,0.671 0.391,0.75 c 0.5,-0.328 1.063,-0.687 1.922,-0.687 1,0 1.719,0.516 1.719,1.516 0,1.171 -0.938,2.218 -3.844,5.437 v 0.641 h 4.922 v -0.875 h -3.531 c 2.875,-3.219 3.437,-4.063 3.437,-5.203 0,-1.453 -1.078,-2.391 -2.547,-2.391 -1.172,0 -1.687,0.328 -2.469,0.812 z m 6.59,3.344 v 0.875 h 3.485 v -0.875 h -3.485"
                 style="fill:#404040;fill-opacity:1;fill-rule:nonzero;stroke:none"
                 id="path69" /><g
                 id="g73"><path
                   d="m 39.516,231.469 h 300"
                   style="fill:none;stroke:#0000ff;stroke-width:1;stroke-linecap:square;stroke-linejoin:miter;stroke-miterlimit:10;stroke-dasharray:none;stroke-opacity:1"
                   id="path71" /></g><path
                 d="m 4.594,233.938 c 0,1.343 -1.188,1.781 -2.047,1.781 -0.485,0 -1.109,-0.125 -1.875,-0.36 l -0.297,0.844 c 0.609,0.203 1.437,0.391 2.203,0.391 1.36,0 3.016,-0.782 3.016,-2.672 0,-1.61 -1.11,-2.547 -2.703,-2.547 -0.453,0 -0.829,0.063 -1.157,0.156 v -2.484 h 3.438 v -0.875 H 0.734 v 3.984 l 0.219,0.406 c 0.609,-0.203 1.125,-0.312 1.5,-0.312 1.328,0 2.141,0.312 2.141,1.688 z M 9.543,228.141 6.637,237 h 1 l 2.906,-8.859 z m 2.062,0.671 0.391,0.75 c 0.5,-0.328 1.063,-0.687 1.922,-0.687 1,0 1.719,0.516 1.719,1.516 0,1.171 -0.938,2.218 -3.844,5.437 v 0.641 h 4.922 v -0.875 h -3.531 c 2.875,-3.219 3.437,-4.063 3.437,-5.203 0,-1.453 -1.078,-2.391 -2.547,-2.391 -1.172,0 -1.687,0.328 -2.469,0.812 z m 6.59,3.344 v 0.875 h 3.485 v -0.875 h -3.485"
                 style="fill:#404040;fill-opacity:1;fill-rule:nonzero;stroke:none"
                 id="path75" /><g
                 id="g79"><path
                   d="m 39.516,193.469 h 300"
                   style="fill:none;stroke:#0000ff;stroke-width:1;stroke-linecap:square;stroke-linejoin:miter;stroke-miterlimit:10;stroke-dasharray:none;stroke-opacity:1"
                   id="path77" /></g><path
                 d="m 2.719,190 c -1,0 -1.578,0.281 -2.344,0.719 l 0.375,0.75 c 0.703,-0.375 1.141,-0.594 1.969,-0.594 0.984,0 1.547,0.281 1.547,1.359 0,1.016 -0.828,1.547 -2.454,1.61 v 0.875 c 1.516,0 2.891,0.156 2.891,1.5 0,1 -0.656,1.5 -1.984,1.5 -0.953,0 -1.563,-0.281 -2.344,-0.672 L 0,197.875 c 0.938,0.437 1.562,0.719 2.797,0.719 1.625,0 2.906,-0.766 2.906,-2.328 0,-1.266 -0.719,-1.844 -1.656,-2.157 0.609,-0.343 1.219,-1.047 1.219,-1.968 C 5.266,190.688 4.203,190 2.719,190 Z M 9.543,190.141 6.637,199 h 1 l 2.906,-8.859 z m 2.062,0.671 0.391,0.75 c 0.5,-0.328 1.063,-0.687 1.922,-0.687 1,0 1.719,0.516 1.719,1.516 0,1.171 -0.938,2.218 -3.844,5.437 v 0.641 h 4.922 v -0.875 h -3.531 c 2.875,-3.219 3.437,-4.063 3.437,-5.203 0,-1.453 -1.078,-2.391 -2.547,-2.391 -1.172,0 -1.687,0.328 -2.469,0.812 z m 6.59,3.344 v 0.875 h 3.485 v -0.875 h -3.485"
                 style="fill:#404040;fill-opacity:1;fill-rule:nonzero;stroke:none"
                 id="path81" /><g
                 id="g85"><path
                   d="m 39.516,82.469 h 300"
                   style="fill:none;stroke:#0000ff;stroke-width:1;stroke-linecap:square;stroke-linejoin:miter;stroke-miterlimit:10;stroke-dasharray:none;stroke-opacity:1"
                   id="path83" /></g><path
                 d="M 2.625,90.469 5.672,82.891 V 82.172 H 0.25 v 0.875 H 4.531 L 1.625,90.469 Z M 9.543,82.141 6.637,91 h 1 l 2.906,-8.859 z m 2.062,0.671 0.391,0.75 c 0.5,-0.328 1.063,-0.687 1.922,-0.687 1,0 1.719,0.516 1.719,1.516 0,1.171 -0.938,2.218 -3.844,5.437 v 0.641 h 4.922 v -0.875 h -3.531 c 2.875,-3.219 3.437,-4.063 3.437,-5.203 0,-1.453 -1.078,-2.391 -2.547,-2.391 -1.172,0 -1.687,0.328 -2.469,0.812 z m 6.59,3.344 v 0.875 h 3.485 v -0.875 h -3.485"
                 style="fill:#404040;fill-opacity:1;fill-rule:nonzero;stroke:none"
                 id="path87" /><g
                 id="g91"><path
                   d="m 39.516,79.469 h 300"
                   style="fill:none;stroke:#0000ff;stroke-width:1;stroke-linecap:square;stroke-linejoin:miter;stroke-miterlimit:10;stroke-dasharray:none;stroke-opacity:1"
                   id="path89" /></g><g
                 id="g95"><path
                   d="m 39.516,47.469 h 300"
                   style="fill:none;stroke:#0000ff;stroke-width:1;stroke-linecap:square;stroke-linejoin:miter;stroke-miterlimit:10;stroke-dasharray:none;stroke-opacity:1"
                   id="path93" /></g><path
                 d="m 4.594,49.938 c 0,1.343 -1.188,1.781 -2.047,1.781 -0.485,0 -1.109,-0.125 -1.875,-0.36 l -0.297,0.844 c 0.609,0.203 1.437,0.391 2.203,0.391 1.36,0 3.016,-0.782 3.016,-2.672 0,-1.61 -1.11,-2.547 -2.703,-2.547 -0.453,0 -0.829,0.063 -1.157,0.156 V 45.047 H 5.172 V 44.172 H 0.734 v 3.984 l 0.219,0.406 c 0.609,-0.203 1.125,-0.312 1.5,-0.312 1.328,0 2.141,0.312 2.141,1.688 z M 9.543,44.141 6.637,53 h 1 l 2.906,-8.859 z m 2.062,0.671 0.391,0.75 c 0.5,-0.328 1.063,-0.687 1.922,-0.687 1,0 1.719,0.516 1.719,1.516 0,1.171 -0.938,2.218 -3.844,5.437 v 0.641 h 4.922 v -0.875 h -3.531 c 2.875,-3.219 3.437,-4.063 3.437,-5.203 0,-1.453 -1.078,-2.391 -2.547,-2.391 -1.172,0 -1.687,0.328 -2.469,0.812 z m 9.606,0.422 v 2.922 h -2.938 v 0.875 h 2.938 v 2.953 h 0.875 v -2.953 h 2.922 v -0.875 h -2.922 v -2.922 h -0.875"
                 style="fill:#404040;fill-opacity:1;fill-rule:nonzero;stroke:none"
                 id="path97" /><g
                 id="g101"><path
                   d="m 39.516,3.469 h 300"
                   style="fill:none;stroke:#0000ff;stroke-width:1;stroke-linecap:square;stroke-linejoin:miter;stroke-miterlimit:10;stroke-dasharray:none;stroke-opacity:1"
                   id="path99" /></g><path
                 d="m 2.719,0 c -1,0 -1.578,0.281 -2.344,0.719 L 0.75,1.469 C 1.453,1.094 1.891,0.875 2.719,0.875 c 0.984,0 1.547,0.281 1.547,1.359 0,1.016 -0.828,1.547 -2.454,1.61 v 0.875 c 1.516,0 2.891,0.156 2.891,1.5 0,1 -0.656,1.5 -1.984,1.5 -0.953,0 -1.563,-0.281 -2.344,-0.672 L 0,7.875 C 0.938,8.312 1.562,8.594 2.797,8.594 4.422,8.594 5.703,7.828 5.703,6.266 5.703,5 4.984,4.422 4.047,4.109 4.656,3.766 5.266,3.062 5.266,2.141 5.266,0.688 4.203,0 2.719,0 Z M 9.543,0.141 6.637,9 h 1 l 2.906,-8.859 z m 2.062,0.671 0.391,0.75 c 0.5,-0.328 1.063,-0.687 1.922,-0.687 1,0 1.719,0.516 1.719,1.516 0,1.171 -0.938,2.218 -3.844,5.437 v 0.641 h 4.922 V 7.594 H 13.184 C 16.059,4.375 16.621,3.531 16.621,2.391 16.621,0.938 15.543,0 14.074,0 12.902,0 12.387,0.328 11.605,0.812 Z m 9.606,0.422 v 2.922 h -2.938 v 0.875 h 2.938 v 2.953 h 0.875 V 5.031 h 2.922 V 4.156 H 22.086 V 1.234 h -0.875"
                 style="fill:#404040;fill-opacity:1;fill-rule:nonzero;stroke:none"
                 id="path103" /><path
                 d="m 114.984,485.57 h 2.422 v -7.097 l -2.25,0.562 v -1.953 l 2.266,-0.547 h 2.078 v 9.035 h 2.422 v 1.903 h -6.938 z m 9.032,0 h 2.422 v -7.097 l -2.25,0.562 v -1.953 l 2.265,-0.547 h 2.078 v 9.035 h 2.422 v 1.903 h -6.937 v -1.903"
                 style="fill:#000000;fill-opacity:1;fill-rule:nonzero;stroke:none"
                 id="path105" /><path
                 d="m 124.016,501.535 h 5.953 v 1.91 h -4.188 v 2.028 c 0.168,-0.071 0.352,-0.125 0.555,-0.153 0.203,-0.035 0.414,-0.047 0.633,-0.047 1.082,0 1.965,0.34 2.64,1.02 0.676,0.684 1.016,1.574 1.016,2.664 0,1.16 -0.363,2.07 -1.094,2.738 -0.73,0.664 -1.722,1 -2.984,1 -0.469,0 -0.942,-0.039 -1.422,-0.117 -0.48,-0.082 -0.969,-0.199 -1.469,-0.355 v -1.95 c 0.406,0.196 0.824,0.344 1.25,0.442 0.426,0.101 0.856,0.152 1.282,0.152 0.761,0 1.339,-0.164 1.734,-0.488 0.394,-0.32 0.594,-0.797 0.594,-1.422 0,-0.559 -0.196,-1.012 -0.586,-1.355 -0.391,-0.348 -0.914,-0.52 -1.571,-0.52 -0.386,0 -0.773,0.047 -1.164,0.141 -0.39,0.097 -0.785,0.234 -1.179,0.425 v -6.113"
                 style="fill:#000000;fill-opacity:1;fill-rule:nonzero;stroke:none"
                 id="path107" /><path
                 d="m 140.609,492.535 v 6.488 h 2.875 c 1.375,0 2.34,-0.238 2.891,-0.703 0.551,-0.472 0.828,-1.289 0.828,-2.453 0,-1.179 -0.285,-2.027 -0.859,-2.547 -0.574,-0.523 -1.528,-0.785 -2.86,-0.785 z m 0,-8.512 v 5.075 h 2.875 c 1.094,0 1.871,-0.192 2.336,-0.586 0.465,-0.391 0.696,-1.032 0.696,-1.93 0,-0.894 -0.239,-1.547 -0.711,-1.953 -0.473,-0.406 -1.246,-0.606 -2.321,-0.606 z m -4.171,-3.453 h 7.046 c 2.438,0 4.27,0.461 5.493,1.387 1.222,0.93 1.835,2.309 1.835,4.141 0,1.406 -0.363,2.507 -1.085,3.3 -0.723,0.79 -1.786,1.25 -3.18,1.375 1.668,0.165 2.926,0.727 3.773,1.684 0.848,0.961 1.274,2.297 1.274,4.016 0,2.105 -0.637,3.632 -1.906,4.578 -1.27,0.949 -3.34,1.426 -6.204,1.426 h -7.046 V 480.57"
                 style="fill:#000000;fill-opacity:1;fill-rule:nonzero;stroke:none"
                 id="path109" /><path
                 d="m 160.312,506.992 c -0.468,0 -0.824,0.168 -1.07,0.512 -0.246,0.348 -0.367,0.836 -0.367,1.469 0,0.648 0.121,1.14 0.367,1.48 0.246,0.336 0.602,0.504 1.07,0.504 0.469,0 0.833,-0.168 1.086,-0.504 0.254,-0.34 0.383,-0.832 0.383,-1.48 0,-0.633 -0.129,-1.121 -0.383,-1.469 -0.253,-0.344 -0.617,-0.512 -1.086,-0.512 z m 2.844,-5.191 v 1.953 c -0.386,-0.219 -0.754,-0.383 -1.109,-0.492 -0.356,-0.106 -0.699,-0.164 -1.031,-0.164 -0.782,0 -1.375,0.265 -1.782,0.789 -0.406,0.527 -0.621,1.301 -0.64,2.32 0.23,-0.309 0.523,-0.547 0.883,-0.711 0.359,-0.16 0.777,-0.242 1.257,-0.242 0.989,0 1.754,0.316 2.289,0.941 0.536,0.625 0.805,1.504 0.805,2.637 0,1.23 -0.301,2.184 -0.906,2.863 -0.606,0.676 -1.453,1.012 -2.547,1.012 -1.332,0 -2.301,-0.445 -2.906,-1.34 -0.606,-0.898 -0.907,-2.34 -0.907,-4.332 0,-1.894 0.372,-3.316 1.11,-4.265 0.738,-0.946 1.848,-1.422 3.328,-1.422 0.332,0 0.684,0.039 1.047,0.109 0.363,0.074 0.734,0.188 1.109,0.344"
                 style="fill:#000000;fill-opacity:1;fill-rule:nonzero;stroke:none"
                 id="path111" /><g
                 id="g115"><path
                   d="m 49.516,4.469 v 513"
                   style="fill:none;stroke:#000000;stroke-width:1;stroke-linecap:square;stroke-linejoin:miter;stroke-miterlimit:10;stroke-dasharray:none;stroke-opacity:1"
                   id="path113" /></g><path
                 d="m 47.516,2.469 h 4 v 4 h -4 z"
                 style="fill:#000000;fill-opacity:1;fill-rule:nonzero;stroke:none"
                 id="path117" /><path
                 d="m 49.516,517.469 3,-6 h -6"
                 style="fill:#000000;fill-opacity:1;fill-rule:nonzero;stroke:none"
                 id="path119" /><g
                 id="g123"><path
                   d="m 69.516,4.469 v 376"
                   style="fill:none;stroke:#000000;stroke-width:1;stroke-linecap:square;stroke-linejoin:miter;stroke-miterlimit:10;stroke-dasharray:none;stroke-opacity:1"
                   id="path121" /></g><path
                 d="m 67.516,2.469 h 4 v 4 h -4 z"
                 style="fill:#000000;fill-opacity:1;fill-rule:nonzero;stroke:none"
                 id="path125" /><path
                 d="m 69.516,380.469 3,-6 h -6"
                 style="fill:#000000;fill-opacity:1;fill-rule:nonzero;stroke:none"
                 id="path127" /><g
                 id="g131"><path
                   d="m 89.516,4.469 v 43"
                   style="fill:none;stroke:#d2d2d2;stroke-width:1;stroke-linecap:square;stroke-linejoin:miter;stroke-miterlimit:10;stroke-dasharray:none;stroke-opacity:1"
                   id="path129" /></g><path
                 d="m 87.516,2.469 h 4 v 4 h -4 z"
                 style="fill:#d2d2d2;fill-opacity:1;fill-rule:nonzero;stroke:none"
                 id="path133" /><path
                 d="m 89.516,47.469 3,-6 h -6"
                 style="fill:#d2d2d2;fill-opacity:1;fill-rule:nonzero;stroke:none"
                 id="path135" /><g
                 id="g139"><path
                   d="m 109.516,48.469 v 469"
                   style="fill:none;stroke:#000000;stroke-width:1;stroke-linecap:square;stroke-linejoin:miter;stroke-miterlimit:10;stroke-dasharray:none;stroke-opacity:1"
                   id="path137" /></g><path
                 d="m 107.516,46.469 h 4 v 4 h -4 z"
                 style="fill:#000000;fill-opacity:1;fill-rule:nonzero;stroke:none"
                 id="path141" /><path
                 d="m 109.516,517.469 3,-6 h -6"
                 style="fill:#000000;fill-opacity:1;fill-rule:nonzero;stroke:none"
                 id="path143" /><g
                 id="g147"><path
                   d="m 129.516,48.469 v 183"
                   style="fill:none;stroke:#c0c0c0;stroke-width:1;stroke-linecap:square;stroke-linejoin:miter;stroke-miterlimit:10;stroke-dasharray:none;stroke-opacity:1"
                   id="path145" /></g><path
                 d="m 127.516,46.469 h 4 v 4 h -4 z"
                 style="fill:#c0c0c0;fill-opacity:1;fill-rule:nonzero;stroke:none"
                 id="path149" /><path
                 d="m 129.516,231.469 3,-6 h -6"
                 style="fill:#c0c0c0;fill-opacity:1;fill-rule:nonzero;stroke:none"
                 id="path151" /><g
                 id="g155"><path
                   d="m 149.516,48.469 v 145"
                   style="fill:none;stroke:#c0c0c0;stroke-width:1;stroke-linecap:square;stroke-linejoin:miter;stroke-miterlimit:10;stroke-dasharray:none;stroke-opacity:1"
                   id="path153" /></g><path
                 d="m 147.516,46.469 h 4 v 4 h -4 z"
                 style="fill:#c0c0c0;fill-opacity:1;fill-rule:nonzero;stroke:none"
                 id="path157" /><path
                 d="m 149.516,193.469 3,-6 h -6"
                 style="fill:#c0c0c0;fill-opacity:1;fill-rule:nonzero;stroke:none"
                 id="path159" /><g
                 id="g163"><path
                   d="m 169.516,80.469 v 437"
                   style="fill:none;stroke:#000000;stroke-width:1;stroke-linecap:square;stroke-linejoin:miter;stroke-miterlimit:10;stroke-dasharray:none;stroke-opacity:1"
                   id="path161" /></g><path
                 d="m 167.516,78.469 h 4 v 4 h -4 z"
                 style="fill:#000000;fill-opacity:1;fill-rule:nonzero;stroke:none"
                 id="path165" /><path
                 d="m 169.516,517.469 3,-6 h -6"
                 style="fill:#000000;fill-opacity:1;fill-rule:nonzero;stroke:none"
                 id="path167" /><g
                 id="g171"><path
                   d="m 189.516,80.469 v 300"
                   style="fill:none;stroke:#000000;stroke-width:1;stroke-linecap:square;stroke-linejoin:miter;stroke-miterlimit:10;stroke-dasharray:none;stroke-opacity:1"
                   id="path169" /></g><path
                 d="m 187.516,78.469 h 4 v 4 h -4 z"
                 style="fill:#000000;fill-opacity:1;fill-rule:nonzero;stroke:none"
                 id="path173" /><path
                 d="m 189.516,380.469 3,-6 h -6"
                 style="fill:#000000;fill-opacity:1;fill-rule:nonzero;stroke:none"
                 id="path175" /><g
                 id="g179"><path
                   d="m 209.516,80.469 v 113"
                   style="fill:none;stroke:#d2d2d2;stroke-width:1;stroke-linecap:square;stroke-linejoin:miter;stroke-miterlimit:10;stroke-dasharray:none;stroke-opacity:1"
                   id="path177" /></g><path
                 d="m 207.516,78.469 h 4 v 4 h -4 z"
                 style="fill:#d2d2d2;fill-opacity:1;fill-rule:nonzero;stroke:none"
                 id="path181" /><path
                 d="m 209.516,193.469 3,-6 h -6"
                 style="fill:#d2d2d2;fill-opacity:1;fill-rule:nonzero;stroke:none"
                 id="path183" /><g
                 id="g187"><path
                   d="m 229.516,83.469 v 434"
                   style="fill:none;stroke:#000000;stroke-width:1;stroke-linecap:square;stroke-linejoin:miter;stroke-miterlimit:10;stroke-dasharray:none;stroke-opacity:1"
                   id="path185" /></g><path
                 d="m 227.516,81.469 h 4 v 4 h -4 z"
                 style="fill:#000000;fill-opacity:1;fill-rule:nonzero;stroke:none"
                 id="path189" /><path
                 d="m 229.516,517.469 3,-6 h -6"
                 style="fill:#000000;fill-opacity:1;fill-rule:nonzero;stroke:none"
                 id="path191" /><g
                 id="g195"><path
                   d="m 249.516,83.469 v 148"
                   style="fill:none;stroke:#000000;stroke-width:1;stroke-linecap:square;stroke-linejoin:miter;stroke-miterlimit:10;stroke-dasharray:none;stroke-opacity:1"
                   id="path193" /></g><path
                 d="m 247.516,81.469 h 4 v 4 h -4 z"
                 style="fill:#000000;fill-opacity:1;fill-rule:nonzero;stroke:none"
                 id="path197" /><path
                 d="m 249.516,231.469 3,-6 h -6"
                 style="fill:#000000;fill-opacity:1;fill-rule:nonzero;stroke:none"
                 id="path199" /><g
                 id="g203"><path
                   d="m 269.516,194.469 v 323"
                   style="fill:none;stroke:#000000;stroke-width:1;stroke-linecap:square;stroke-linejoin:miter;stroke-miterlimit:10;stroke-dasharray:none;stroke-opacity:1"
                   id="path201" /></g><path
                 d="m 267.516,192.469 h 4 v 4 h -4 z"
                 style="fill:#000000;fill-opacity:1;fill-rule:nonzero;stroke:none"
                 id="path205" /><path
                 d="m 269.516,517.469 3,-6 h -6"
                 style="fill:#000000;fill-opacity:1;fill-rule:nonzero;stroke:none"
                 id="path207" /><g
                 id="g211"><path
                   d="m 289.516,194.469 v 186"
                   style="fill:none;stroke:#808080;stroke-width:1;stroke-linecap:square;stroke-linejoin:miter;stroke-miterlimit:10;stroke-dasharray:none;stroke-opacity:1"
                   id="path209" /></g><path
                 d="m 287.516,192.469 h 4 v 4 h -4 z"
                 style="fill:#808080;fill-opacity:1;fill-rule:nonzero;stroke:none"
                 id="path213" /><path
                 d="m 289.516,380.469 3,-6 h -6"
                 style="fill:#808080;fill-opacity:1;fill-rule:nonzero;stroke:none"
                 id="path215" /><g
                 id="g219"><path
                   d="m 309.516,232.469 v 285"
                   style="fill:none;stroke:#000000;stroke-width:1;stroke-linecap:square;stroke-linejoin:miter;stroke-miterlimit:10;stroke-dasharray:none;stroke-opacity:1"
                   id="path217" /></g><path
                 d="m 307.516,230.469 h 4 v 4 h -4 z"
                 style="fill:#000000;fill-opacity:1;fill-rule:nonzero;stroke:none"
                 id="path221" /><path
                 d="m 309.516,517.469 3,-6 h -6"
                 style="fill:#000000;fill-opacity:1;fill-rule:nonzero;stroke:none"
                 id="path223" /><g
                 id="g227"><path
                   d="m 329.516,381.469 v 136"
                   style="fill:none;stroke:#000000;stroke-width:1;stroke-linecap:square;stroke-linejoin:miter;stroke-miterlimit:10;stroke-dasharray:none;stroke-opacity:1"
                   id="path225" /></g><path
                 d="m 327.516,379.469 h 4 v 4 h -4 z"
                 style="fill:#000000;fill-opacity:1;fill-rule:nonzero;stroke:none"
                 id="path229" /><path
                 d="m 329.516,517.469 3,-6 h -6"
                 style="fill:#000000;fill-opacity:1;fill-rule:nonzero;stroke:none"
                 id="path231" /><g
                 id="g235"><path
                   d="m 339.516,517.469 169.257,0.363"
                   style="fill:#c84630;fill-opacity:1;fill-rule:nonzero;stroke:#319866;stroke-width:1.31811;stroke-linecap:butt;stroke-linejoin:miter;stroke-miterlimit:4;stroke-dasharray:10.5449, 10.5449;stroke-dashoffset:0;stroke-opacity:1"
                   id="path233" /></g><g
                 id="g239"><path
                   d="m 339.516,380.469 169.257,9.324"
                   style="fill:#c84630;fill-opacity:1;fill-rule:nonzero;stroke:#319866;stroke-width:1.31811;stroke-linecap:butt;stroke-linejoin:miter;stroke-miterlimit:4;stroke-dasharray:10.5449, 10.5449;stroke-dashoffset:0;stroke-opacity:1"
                   id="path237" /></g><g
                 id="g243"><path
                   d="m 339.516,231.469 169.257,9.722"
                   style="fill:#c84630;fill-opacity:1;fill-rule:nonzero;stroke:#319866;stroke-width:1.31811;stroke-linecap:butt;stroke-linejoin:miter;stroke-miterlimit:4;stroke-dasharray:10.5449, 10.5449;stroke-dashoffset:0;stroke-opacity:1"
                   id="path241" /></g><g
                 id="g247"><path
                   d="m 339.516,193.469 169.257,16.879"
                   style="fill:#c84630;fill-opacity:1;fill-rule:nonzero;stroke:#319866;stroke-width:1.31811;stroke-linecap:butt;stroke-linejoin:miter;stroke-miterlimit:4;stroke-dasharray:10.5449, 10.5449;stroke-dashoffset:0;stroke-opacity:1"
                   id="path245" /></g><g
                 id="g251"><path
                   d="m 339.516,79.469 169.257,31.812"
                   style="fill:#c84630;fill-opacity:1;fill-rule:nonzero;stroke:#319866;stroke-width:1.31811;stroke-linecap:butt;stroke-linejoin:miter;stroke-miterlimit:4;stroke-dasharray:10.5449, 10.5449;stroke-dashoffset:0;stroke-opacity:1"
                   id="path249" /></g><g
                 id="g255"><path
                   d="m 339.516,82.469 169.257,20.402"
                   style="fill:#c84630;fill-opacity:1;fill-rule:nonzero;stroke:#319866;stroke-width:1.31811;stroke-linecap:butt;stroke-linejoin:miter;stroke-miterlimit:4;stroke-dasharray:10.5449, 10.5449;stroke-dashoffset:0;stroke-opacity:1"
                   id="path253" /></g><g
                 id="g259"><path
                   d="M 339.516,47.469 508.773,74.832"
                   style="fill:#c84630;fill-opacity:1;fill-rule:nonzero;stroke:#319866;stroke-width:1.31811;stroke-linecap:butt;stroke-linejoin:miter;stroke-miterlimit:4;stroke-dasharray:10.5449, 10.5449;stroke-dashoffset:0;stroke-opacity:1"
                   id="path257" /></g><g
                 id="g263"><path
                   d="m 339.516,3.469 169.257,33.98"
                   style="fill:#c84630;fill-opacity:1;fill-rule:nonzero;stroke:#319866;stroke-width:1.31811;stroke-linecap:butt;stroke-linejoin:miter;stroke-miterlimit:4;stroke-dasharray:10.5449, 10.5449;stroke-dashoffset:0;stroke-opacity:1"
                   id="path261" /></g></g></g></g></g><g
         id="g271"><path
           d="M 508.773,517.832 H 808.566"
           style="fill:none;stroke:#0000ff;stroke-width:0.966412;stroke-linecap:square;stroke-linejoin:miter;stroke-miterlimit:10;stroke-dasharray:none;stroke-opacity:1"
           id="path273" /></g><path
         d="m 822.043,514.309 c -1.984,0 -2.906,2 -2.906,4.296 0,2.282 0.922,4.297 2.906,4.297 1.953,0 2.828,-2.015 2.828,-4.297 0,-2.328 -0.844,-4.296 -2.828,-4.296 z m -0.031,7.718 c -1.407,0 -1.86,-1.703 -1.86,-3.422 0,-1.734 0.453,-3.421 1.86,-3.421 1.406,0 1.859,1.687 1.859,3.421 0,1.719 -0.453,3.422 -1.859,3.422"
         style="fill:#0000ff;fill-opacity:1;fill-rule:nonzero;stroke:none"
         id="path275" /><g
         id="g277"><path
           d="M 508.773,389.793 H 808.566"
           style="fill:none;stroke:#0000ff;stroke-width:0.966412;stroke-linecap:square;stroke-linejoin:miter;stroke-miterlimit:10;stroke-dasharray:none;stroke-opacity:1"
           id="path279" /></g><path
         d="m 819.512,387.008 0.39,0.75 c 0.5,-0.328 1.063,-0.688 1.922,-0.688 1,0 1.719,0.516 1.719,1.516 0,1.172 -0.938,2.219 -3.84,5.437 v 0.641 h 4.918 v -0.875 h -3.531 c 2.875,-3.219 3.437,-4.062 3.437,-5.203 0,-1.453 -1.078,-2.391 -2.547,-2.391 -1.171,0 -1.687,0.328 -2.468,0.813 z m 9.414,-0.813 c -1.985,0 -2.903,2 -2.903,4.297 0,2.281 0.918,4.297 2.903,4.297 1.953,0 2.824,-2.016 2.824,-4.297 0,-2.328 -0.84,-4.297 -2.824,-4.297 z m -0.031,7.719 c -1.407,0 -1.86,-1.703 -1.86,-3.422 0,-1.734 0.453,-3.422 1.86,-3.422 1.406,0 1.859,1.688 1.859,3.422 0,1.719 -0.453,3.422 -1.859,3.422 z m 6.914,-7.719 c -1.981,0 -2.903,2 -2.903,4.297 0,2.281 0.922,4.297 2.903,4.297 1.953,0 2.828,-2.016 2.828,-4.297 0,-2.328 -0.844,-4.297 -2.828,-4.297 z m -0.032,7.719 c -1.406,0 -1.855,-1.703 -1.855,-3.422 0,-1.734 0.449,-3.422 1.855,-3.422 1.407,0 1.86,1.688 1.86,3.422 0,1.719 -0.453,3.422 -1.86,3.422 z m 6.914,-7.719 c -1.98,0 -2.902,2 -2.902,4.297 0,2.281 0.922,4.297 2.902,4.297 1.954,0 2.829,-2.016 2.829,-4.297 0,-2.328 -0.844,-4.297 -2.829,-4.297 z m -0.031,7.719 c -1.402,0 -1.855,-1.703 -1.855,-3.422 0,-1.734 0.453,-3.422 1.855,-3.422 1.406,0 1.86,1.688 1.86,3.422 0,1.719 -0.454,3.422 -1.86,3.422 z m 4.871,0.875 c 0.422,0 0.719,-0.316 0.719,-0.719 0,-0.422 -0.297,-0.722 -0.719,-0.722 -0.422,0 -0.719,0.3 -0.719,0.722 0,0.403 0.297,0.719 0.719,0.719 z m 5.043,-8.594 c -1.984,0 -2.906,2 -2.906,4.297 0,2.281 0.922,4.297 2.906,4.297 1.953,0 2.824,-2.016 2.824,-4.297 0,-2.328 -0.839,-4.297 -2.824,-4.297 z m -0.031,7.719 c -1.406,0 -1.859,-1.703 -1.859,-3.422 0,-1.734 0.453,-3.422 1.859,-3.422 1.406,0 1.859,1.688 1.859,3.422 0,1.719 -0.453,3.422 -1.859,3.422 z m 8.984,-2.375 c 0,-2.016 0.75,-3.828 1.594,-5.234 l -0.766,-0.407 c -0.921,1.516 -1.824,3.422 -1.824,5.641 0,2.266 0.887,4.266 1.84,5.828 l 0.75,-0.5 c -0.859,-1.406 -1.594,-3.281 -1.594,-5.328 z m 8.575,0.156 h -1.063 v -5.328 h -1.5 l -3.512,5.531 v 0.672 h 4.028 v 2.125 h 0.984 v -2.125 h 1.063 z m -4.872,0 2.825,-4.347 v 4.347 z m 8.301,-0.097 c 0,-2.203 -0.886,-4.184 -1.808,-5.7 l -0.782,0.407 c 0.86,1.418 1.594,3.25 1.594,5.293 0,1.797 -0.547,3.547 -1.594,5.269 l 0.75,0.5 c 0.938,-1.547 1.84,-3.547 1.84,-5.769"
         style="fill:#0000ff;fill-opacity:1;fill-rule:nonzero;stroke:none"
         id="path281" /><g
         id="g283"><path
           d="M 508.773,241.191 H 808.566"
           style="fill:none;stroke:#0000ff;stroke-width:0.966412;stroke-linecap:square;stroke-linejoin:miter;stroke-miterlimit:10;stroke-dasharray:none;stroke-opacity:1"
           id="path285" /></g><path
         d="m 825.07,243.094 h -1.058 v -5.328 h -1.5 L 819,243.297 v 0.672 h 4.027 v 2.125 h 0.985 v -2.125 h 1.058 z m -4.871,0 2.828,-4.344 v 4.344 z m 8.446,-5.5 c -1,0 -1.579,0.281 -2.344,0.718 l 0.375,0.75 c 0.703,-0.374 1.14,-0.593 1.969,-0.593 0.984,0 1.546,0.281 1.546,1.359 0,1.016 -0.828,1.547 -2.453,1.61 v 0.874 c 1.516,0 2.891,0.157 2.891,1.5 0,1 -0.656,1.5 -1.984,1.5 -0.954,0 -1.563,-0.281 -2.344,-0.671 l -0.375,0.828 c 0.937,0.437 1.562,0.719 2.797,0.719 1.625,0 2.902,-0.766 2.902,-2.329 0,-1.265 -0.715,-1.843 -1.652,-2.156 0.609,-0.344 1.218,-1.047 1.218,-1.969 0,-1.453 -1.062,-2.14 -2.546,-2.14 z m 9.992,7.594 h -2 v -7.422 h -1.141 l -2.215,1.046 0.297,0.813 2.059,-0.984 v 6.547 h -2.215 v 0.874 h 5.215 z m 4.304,-3.735 c -0.906,-0.312 -1.703,-0.656 -1.703,-1.578 0,-0.828 0.641,-1.406 1.25,-1.406 0.844,0 1.453,0.437 1.453,1.359 0,0.484 -0.093,1.078 -1,1.625 z m 0.829,0.297 c 0.906,-0.562 1.171,-1.344 1.171,-2 0,-1.469 -1.171,-2.156 -2.39,-2.156 -1.172,0 -2.309,0.828 -2.309,2.172 0,0.953 0.438,1.5 1.043,1.875 -1.215,0.671 -1.355,1.703 -1.355,2.125 0,1.578 1.23,2.422 2.761,2.422 1.516,0 2.688,-0.985 2.688,-2.532 0,-1.094 -0.766,-1.578 -1.609,-1.906 z m -1.688,0.25 c 1.094,0.453 2.297,0.672 2.297,1.766 0,0.984 -0.797,1.546 -1.688,1.546 -0.937,0 -1.761,-0.609 -1.761,-1.624 0,-0.282 0.058,-1 1.152,-1.688 z m 5.449,4.188 c 0.422,0 0.719,-0.313 0.719,-0.719 0,-0.422 -0.297,-0.719 -0.719,-0.719 -0.422,0 -0.719,0.297 -0.719,0.719 0,0.406 0.297,0.719 0.719,0.719 z m 5.293,-4.735 c -0.906,-0.312 -1.703,-0.656 -1.703,-1.578 0,-0.828 0.641,-1.406 1.25,-1.406 0.844,0 1.453,0.437 1.453,1.359 0,0.484 -0.094,1.078 -1,1.625 z m 0.828,0.297 c 0.907,-0.562 1.172,-1.344 1.172,-2 0,-1.469 -1.172,-2.156 -2.39,-2.156 -1.172,0 -2.313,0.828 -2.313,2.172 0,0.953 0.438,1.5 1.047,1.875 -1.219,0.671 -1.359,1.703 -1.359,2.125 0,1.578 1.234,2.422 2.765,2.422 1.516,0 2.684,-0.985 2.684,-2.532 0,-1.094 -0.762,-1.578 -1.606,-1.906 z m -1.687,0.25 c 1.094,0.453 2.297,0.672 2.297,1.766 0,0.984 -0.797,1.546 -1.688,1.546 -0.937,0 -1.765,-0.609 -1.765,-1.624 0,-0.282 0.062,-1 1.156,-1.688 z m 9.562,0.938 c 0,-2.016 0.75,-3.829 1.594,-5.235 l -0.766,-0.406 c -0.921,1.515 -1.824,3.422 -1.824,5.641 0,2.265 0.887,4.265 1.84,5.828 l 0.75,-0.5 c -0.859,-1.407 -1.594,-3.282 -1.594,-5.328 z m 8.371,2.25 h -2 v -7.422 h -1.14 l -2.215,1.046 0.297,0.813 2.058,-0.984 v 6.547 h -2.214 v 0.874 h 5.214 z m 1.528,-6.782 0.39,0.75 c 0.5,-0.328 1.063,-0.687 1.918,-0.687 1,0 1.719,0.515 1.719,1.515 0,1.172 -0.937,2.219 -3.84,5.438 v 0.64 h 4.918 v -0.874 h -3.527 c 2.871,-3.219 3.434,-4.063 3.434,-5.204 0,-1.453 -1.079,-2.39 -2.547,-2.39 -1.168,0 -1.684,0.328 -2.465,0.812 z m 8.992,4.594 c 0,-2.203 -0.891,-4.188 -1.813,-5.703 l -0.781,0.406 c 0.86,1.422 1.594,3.25 1.594,5.297 0,1.797 -0.547,3.547 -1.594,5.266 l 0.75,0.5 c 0.938,-1.547 1.844,-3.547 1.844,-5.766"
         style="fill:#0000ff;fill-opacity:1;fill-rule:nonzero;stroke:none"
         id="path287" /><g
         id="g289"><path
           d="M 508.773,210.348 H 808.566"
           style="fill:none;stroke:#0000ff;stroke-width:0.966412;stroke-linecap:square;stroke-linejoin:miter;stroke-miterlimit:10;stroke-dasharray:none;stroke-opacity:1"
           id="path291" /></g><path
         d="m 825.07,212.25 h -1.058 v -5.328 h -1.5 L 819,212.453 v 0.672 h 4.027 v 2.125 h 0.985 v -2.125 h 1.058 z m -4.871,0 2.828,-4.344 v 4.344 z m 8.977,-1.641 c -0.906,-0.312 -1.703,-0.656 -1.703,-1.578 0,-0.828 0.64,-1.406 1.25,-1.406 0.843,0 1.453,0.437 1.453,1.359 0,0.485 -0.094,1.078 -1,1.625 z m 0.828,0.297 c 0.906,-0.562 1.172,-1.344 1.172,-2 0,-1.468 -1.172,-2.156 -2.391,-2.156 -1.172,0 -2.312,0.828 -2.312,2.172 0,0.953 0.437,1.5 1.047,1.875 -1.219,0.672 -1.356,1.703 -1.356,2.125 0,1.578 1.231,2.422 2.762,2.422 1.515,0 2.687,-0.985 2.687,-2.532 0,-1.093 -0.765,-1.578 -1.609,-1.906 z m -1.688,0.25 c 1.094,0.453 2.297,0.672 2.297,1.766 0,0.984 -0.797,1.547 -1.687,1.547 -0.938,0 -1.766,-0.61 -1.766,-1.625 0,-0.282 0.063,-1 1.156,-1.688 z m 7.493,-4.406 c -1.985,0 -2.903,2 -2.903,4.297 0,2.281 0.918,4.297 2.903,4.297 1.953,0 2.828,-2.016 2.828,-4.297 0,-2.328 -0.844,-4.297 -2.828,-4.297 z m -0.032,7.719 c -1.406,0 -1.855,-1.703 -1.855,-3.422 0,-1.735 0.449,-3.422 1.855,-3.422 1.407,0 1.86,1.687 1.86,3.422 0,1.719 -0.453,3.422 -1.86,3.422 z m 9.946,-2.219 h -1.063 v -5.328 h -1.5 l -3.512,5.531 v 0.672 h 4.028 v 2.125 h 0.984 v -2.125 h 1.063 z m -4.871,0 2.824,-4.344 v 4.344 z m 6.679,3.094 c 0.422,0 0.719,-0.313 0.719,-0.719 0,-0.422 -0.297,-0.719 -0.719,-0.719 -0.422,0 -0.719,0.297 -0.719,0.719 0,0.406 0.297,0.719 0.719,0.719 z m 2.512,-7.782 0.391,0.75 c 0.5,-0.328 1.062,-0.687 1.921,-0.687 1,0 1.719,0.516 1.719,1.516 0,1.171 -0.937,2.218 -3.844,5.437 v 0.641 h 4.918 v -0.875 h -3.527 c 2.875,-3.219 3.434,-4.063 3.434,-5.203 0,-1.453 -1.075,-2.391 -2.543,-2.391 -1.172,0 -1.688,0.328 -2.469,0.812 z m 11.484,4.532 c 0,-2.016 0.75,-3.828 1.594,-5.235 l -0.766,-0.406 c -0.921,1.516 -1.824,3.422 -1.824,5.641 0,2.265 0.887,4.265 1.84,5.828 l 0.75,-0.5 c -0.859,-1.406 -1.594,-3.281 -1.594,-5.328 z m 8.371,2.25 h -2 v -7.422 h -1.14 l -2.215,1.047 0.297,0.812 2.058,-0.984 v 6.547 h -2.214 v 0.875 h 5.214 z m 1.528,-6.782 0.39,0.75 c 0.5,-0.328 1.063,-0.687 1.918,-0.687 1,0 1.719,0.516 1.719,1.516 0,1.171 -0.937,2.218 -3.84,5.437 v 0.641 h 4.918 v -0.875 h -3.527 c 2.871,-3.219 3.434,-4.063 3.434,-5.203 0,-1.453 -1.079,-2.391 -2.547,-2.391 -1.168,0 -1.684,0.328 -2.465,0.812 z m 8.992,4.594 c 0,-2.203 -0.891,-4.187 -1.813,-5.703 l -0.781,0.406 c 0.86,1.422 1.594,3.25 1.594,5.297 0,1.797 -0.547,3.547 -1.594,5.266 l 0.75,0.5 c 0.938,-1.547 1.844,-3.547 1.844,-5.766"
         style="fill:#0000ff;fill-opacity:1;fill-rule:nonzero;stroke:none"
         id="path293" /><g
         id="g295"><path
           d="M 508.773,111.281 H 808.566"
           style="fill:none;stroke:#0000ff;stroke-width:0.966412;stroke-linecap:square;stroke-linejoin:miter;stroke-miterlimit:10;stroke-dasharray:none;stroke-opacity:1"
           id="path297" /></g><path
         d="m 822.496,107.684 c -2.234,0 -3.234,2.125 -3.234,4.406 0,2.328 0.922,4.187 2.859,4.187 1.328,0 2.746,-0.828 2.746,-2.531 0,-1.687 -1.031,-2.703 -2.496,-2.703 -0.828,0 -1.656,0.359 -2.109,0.781 0,-1.422 0.547,-3.265 2.312,-3.265 0.453,0 1.031,0.125 1.375,0.375 l 0.496,-0.719 c -0.418,-0.313 -1.23,-0.531 -1.949,-0.531 z m -0.297,7.718 c -1.531,0 -1.937,-1.75 -1.937,-2.718 0.453,-0.391 1.265,-0.766 2.047,-0.766 1,0 1.562,0.594 1.562,1.781 0,1.235 -0.906,1.703 -1.672,1.703 z m 6.446,-7.718 c -1,0 -1.579,0.281 -2.344,0.718 l 0.375,0.75 c 0.703,-0.375 1.14,-0.593 1.969,-0.593 0.984,0 1.546,0.281 1.546,1.359 0,1.016 -0.828,1.547 -2.453,1.609 v 0.875 c 1.516,0 2.887,0.157 2.887,1.5 0,1 -0.652,1.5 -1.98,1.5 -0.954,0 -1.563,-0.281 -2.344,-0.672 l -0.375,0.829 c 0.937,0.437 1.562,0.718 2.797,0.718 1.625,0 2.902,-0.765 2.902,-2.328 0,-1.265 -0.715,-1.844 -1.652,-2.156 0.609,-0.344 1.218,-1.047 1.218,-1.969 0,-1.453 -1.062,-2.14 -2.546,-2.14 z m 6.882,0 c -1,0 -1.578,0.281 -2.339,0.718 l 0.374,0.75 c 0.7,-0.375 1.137,-0.593 1.965,-0.593 0.985,0 1.547,0.281 1.547,1.359 0,1.016 -0.828,1.547 -2.453,1.609 v 0.875 c 1.516,0 2.891,0.157 2.891,1.5 0,1 -0.657,1.5 -1.985,1.5 -0.953,0 -1.562,-0.281 -2.339,-0.672 l -0.376,0.829 c 0.934,0.437 1.559,0.718 2.793,0.718 1.625,0 2.907,-0.765 2.907,-2.328 0,-1.265 -0.719,-1.844 -1.657,-2.156 0.61,-0.344 1.219,-1.047 1.219,-1.969 0,-1.453 -1.062,-2.14 -2.547,-2.14 z m 6.805,8.593 c 2.203,0 3.188,-2.14 3.188,-4.422 0,-2.328 -0.875,-4.171 -2.704,-4.171 -1.625,0 -2.886,0.984 -2.886,2.562 0,1.531 1.218,2.672 2.605,2.672 0.672,0 1.563,-0.219 1.985,-0.75 0,1.531 -0.5,3.234 -2.125,3.234 -0.469,0 -1.063,-0.203 -1.438,-0.547 l -0.527,0.704 c 0.406,0.39 1.199,0.718 1.902,0.718 z m 0.422,-7.718 c 1.391,0 1.766,1.796 1.766,2.796 -0.422,0.532 -1.094,0.688 -1.922,0.688 -0.907,0 -1.668,-0.688 -1.668,-1.734 0,-1.11 0.824,-1.75 1.824,-1.75 z m 4.777,7.718 c 0.422,0 0.719,-0.312 0.719,-0.718 0,-0.422 -0.297,-0.719 -0.719,-0.719 -0.422,0 -0.719,0.297 -0.719,0.719 0,0.406 0.297,0.718 0.719,0.718 z m 2.512,-7.781 0.391,0.75 c 0.5,-0.328 1.062,-0.687 1.921,-0.687 1,0 1.719,0.515 1.719,1.515 0,1.172 -0.937,2.219 -3.844,5.438 v 0.64 h 4.918 v -0.875 h -3.527 c 2.875,-3.218 3.434,-4.062 3.434,-5.203 0,-1.453 -1.075,-2.39 -2.543,-2.39 -1.172,0 -1.688,0.328 -2.469,0.812 z m 11.484,4.531 c 0,-2.015 0.75,-3.828 1.594,-5.234 l -0.766,-0.406 c -0.921,1.515 -1.824,3.422 -1.824,5.64 0,2.266 0.887,4.266 1.84,5.828 l 0.75,-0.5 c -0.859,-1.406 -1.594,-3.281 -1.594,-5.328 z m 8.371,2.25 h -2 v -7.422 h -1.14 l -2.215,1.047 0.297,0.813 2.062,-0.985 v 6.547 h -2.218 v 0.875 h 5.214 z m 7.086,-2.093 h -1.062 v -5.329 h -1.496 l -3.516,5.532 v 0.672 h 4.028 v 2.125 h 0.984 v -2.125 h 1.062 z m -4.871,0 2.825,-4.344 v 4.344 z m 8.305,-0.094 c 0,-2.203 -0.891,-4.188 -1.813,-5.703 l -0.781,0.406 c 0.86,1.422 1.594,3.25 1.594,5.297 0,1.797 -0.547,3.547 -1.594,5.265 l 0.75,0.5 c 0.938,-1.546 1.844,-3.546 1.844,-5.765"
         style="fill:#0000ff;fill-opacity:1;fill-rule:nonzero;stroke:none"
         id="path299" /><g
         id="g301"><path
           d="M 508.773,102.871 H 808.566"
           style="fill:none;stroke:#0000ff;stroke-width:0.966412;stroke-linecap:square;stroke-linejoin:miter;stroke-miterlimit:10;stroke-dasharray:none;stroke-opacity:1"
           id="path303" /></g><g
         id="g305"><path
           d="M 508.773,74.832 H 808.566"
           style="fill:none;stroke:#0000ff;stroke-width:0.966412;stroke-linecap:square;stroke-linejoin:miter;stroke-miterlimit:10;stroke-dasharray:none;stroke-opacity:1"
           id="path307" /></g><path
         d="m 822.496,71.234 c -2.234,0 -3.234,2.125 -3.234,4.407 0,2.328 0.922,4.187 2.859,4.187 1.328,0 2.746,-0.828 2.746,-2.531 0,-1.688 -1.031,-2.703 -2.496,-2.703 -0.828,0 -1.656,0.359 -2.109,0.781 0,-1.422 0.547,-3.266 2.312,-3.266 0.453,0 1.031,0.125 1.375,0.375 l 0.496,-0.718 c -0.418,-0.313 -1.23,-0.532 -1.949,-0.532 z m -0.297,7.719 c -1.531,0 -1.937,-1.75 -1.937,-2.719 0.453,-0.39 1.265,-0.765 2.047,-0.765 1,0 1.562,0.593 1.562,1.781 0,1.234 -0.906,1.703 -1.672,1.703 z m 6.367,0.875 c 2.204,0 3.184,-2.14 3.184,-4.422 0,-2.328 -0.875,-4.172 -2.699,-4.172 -1.625,0 -2.891,0.985 -2.891,2.563 0,1.531 1.219,2.672 2.61,2.672 0.671,0 1.562,-0.219 1.98,-0.75 0,1.531 -0.496,3.234 -2.121,3.234 -0.469,0 -1.063,-0.203 -1.438,-0.547 l -0.531,0.703 c 0.406,0.391 1.203,0.719 1.906,0.719 z m 0.422,-7.719 c 1.391,0 1.762,1.797 1.762,2.797 -0.418,0.532 -1.09,0.688 -1.918,0.688 -0.906,0 -1.672,-0.688 -1.672,-1.735 0,-1.109 0.828,-1.75 1.828,-1.75 z m 6.821,-0.875 c -1.985,0 -2.903,2 -2.903,4.297 0,2.281 0.918,4.297 2.903,4.297 1.953,0 2.828,-2.016 2.828,-4.297 0,-2.328 -0.844,-4.297 -2.828,-4.297 z m -0.032,7.719 c -1.406,0 -1.859,-1.703 -1.859,-3.422 0,-1.734 0.453,-3.422 1.859,-3.422 1.407,0 1.86,1.688 1.86,3.422 0,1.719 -0.453,3.422 -1.86,3.422 z m 9.946,-2.219 h -1.063 v -5.328 h -1.5 l -3.512,5.532 v 0.671 h 4.028 v 2.125 h 0.984 v -2.125 h 1.063 z m -4.871,0 2.824,-4.343 v 4.343 z m 6.679,3.094 c 0.422,0 0.719,-0.312 0.719,-0.719 0,-0.421 -0.297,-0.718 -0.719,-0.718 -0.422,0 -0.719,0.297 -0.719,0.718 0,0.407 0.297,0.719 0.719,0.719 z m 5.293,-4.734 c -0.906,-0.313 -1.703,-0.656 -1.703,-1.578 0,-0.828 0.641,-1.407 1.25,-1.407 0.844,0 1.453,0.438 1.453,1.36 0,0.484 -0.094,1.078 -1,1.625 z m 0.828,0.297 c 0.907,-0.563 1.172,-1.344 1.172,-2 0,-1.469 -1.172,-2.157 -2.39,-2.157 -1.172,0 -2.313,0.828 -2.313,2.172 0,0.953 0.438,1.5 1.047,1.875 -1.219,0.672 -1.359,1.703 -1.359,2.125 0,1.578 1.234,2.422 2.765,2.422 1.516,0 2.684,-0.984 2.684,-2.531 0,-1.094 -0.762,-1.578 -1.606,-1.906 z m -1.687,0.25 c 1.094,0.453 2.297,0.671 2.297,1.765 0,0.985 -0.797,1.547 -1.688,1.547 -0.937,0 -1.765,-0.609 -1.765,-1.625 0,-0.281 0.062,-1 1.156,-1.687 z m 9.562,0.937 c 0,-2.016 0.75,-3.828 1.594,-5.234 l -0.766,-0.406 c -0.921,1.515 -1.824,3.421 -1.824,5.64 0,2.266 0.887,4.266 1.84,5.828 l 0.75,-0.5 c -0.859,-1.406 -1.594,-3.281 -1.594,-5.328 z m 8.371,2.25 h -2 v -7.422 h -1.14 l -2.215,1.047 0.297,0.813 2.058,-0.985 v 6.547 h -2.214 v 0.875 h 5.214 z m 7.086,-2.094 h -1.062 v -5.328 h -1.496 l -3.516,5.532 v 0.671 h 4.028 v 2.125 h 0.984 v -2.125 h 1.062 z m -4.871,0 2.825,-4.343 v 4.343 z m 8.305,-0.093 c 0,-2.203 -0.891,-4.188 -1.813,-5.703 l -0.781,0.406 c 0.86,1.422 1.594,3.25 1.594,5.297 0,1.797 -0.547,3.547 -1.594,5.265 l 0.75,0.5 c 0.938,-1.547 1.844,-3.547 1.844,-5.765"
         style="fill:#0000ff;fill-opacity:1;fill-rule:nonzero;stroke:none"
         id="path309" /><g
         id="g311"><path
           d="M 508.773,43.055 H 808.566"
           style="fill:none;stroke:#0000ff;stroke-width:0.966412;stroke-linecap:butt;stroke-linejoin:miter;stroke-miterlimit:10;stroke-dasharray:5.79847, 1.93282;stroke-dashoffset:0;stroke-opacity:1"
           id="path313" /></g><path
         d="m 821.668,47.73 3.043,-7.082 v -0.671 h -5.418 v 0.816 h 4.281 l -2.906,6.937 z m 5.211,0.118 c 0.422,0 0.719,-0.293 0.719,-0.672 0,-0.395 -0.297,-0.672 -0.719,-0.672 -0.418,0 -0.715,0.277 -0.715,0.672 0,0.379 0.297,0.672 0.715,0.672 z m 8.074,-2.895 h -1.062 v -4.976 h -1.5 l -3.512,5.168 v 0.628 h 4.027 v 1.985 h 0.985 v -1.985 h 1.062 z m -4.871,0 2.824,-4.058 v 4.058 z m 6.258,2.777 h 4.871 v -0.82 h -3.871 v -2.906 h 3.543 v -0.816 h -3.543 v -2.395 h 3.871 v -0.816 h -4.871 z m 8.793,-7.918 c -1,0 -1.578,0.266 -2.34,0.672 l 0.375,0.704 c 0.699,-0.352 1.137,-0.555 1.965,-0.555 0.984,0 1.547,0.262 1.547,1.269 0,0.95 -0.828,1.446 -2.453,1.504 v 0.817 c 1.515,0 2.89,0.148 2.89,1.402 0,0.937 -0.656,1.402 -1.984,1.402 -0.953,0 -1.559,-0.261 -2.34,-0.629 l -0.375,0.778 c 0.934,0.406 1.559,0.672 2.793,0.672 1.625,0 2.906,-0.719 2.906,-2.176 0,-1.184 -0.719,-1.727 -1.656,-2.016 0.609,-0.324 1.219,-0.98 1.219,-1.84 0,-1.359 -1.063,-2.004 -2.547,-2.004"
         style="fill:#0000ff;fill-opacity:1;fill-rule:nonzero;stroke:none"
         id="path315" /><g
         id="g317"><path
           d="M 508.773,37.449 H 808.566"
           style="fill:none;stroke:#0000ff;stroke-width:0.966412;stroke-linecap:square;stroke-linejoin:miter;stroke-miterlimit:10;stroke-dasharray:none;stroke-opacity:1"
           id="path319" /></g><path
         d="m 608.234,485.57 h 2.422 v -7.097 l -2.25,0.562 v -1.953 l 2.266,-0.547 h 2.078 v 9.035 h 2.422 v 1.903 h -6.938 z m 9.032,0 h 2.422 v -7.097 l -2.25,0.562 v -1.953 l 2.265,-0.547 h 2.078 v 9.035 h 2.422 v 1.903 h -6.937 v -1.903"
         style="fill:#000000;fill-opacity:1;fill-rule:nonzero;stroke:none"
         id="path321" /><path
         d="m 620.562,506.992 c -0.468,0 -0.828,0.168 -1.07,0.512 -0.246,0.344 -0.367,0.836 -0.367,1.469 0,0.648 0.121,1.14 0.367,1.48 0.242,0.336 0.602,0.504 1.07,0.504 0.469,0 0.829,-0.168 1.086,-0.504 0.254,-0.34 0.383,-0.832 0.383,-1.48 0,-0.633 -0.129,-1.125 -0.383,-1.469 -0.257,-0.344 -0.617,-0.512 -1.086,-0.512 z m 2.844,-5.191 v 1.953 c -0.386,-0.219 -0.758,-0.383 -1.109,-0.492 -0.356,-0.106 -0.699,-0.164 -1.031,-0.164 -0.782,0 -1.375,0.265 -1.782,0.789 -0.406,0.527 -0.621,1.301 -0.64,2.32 0.226,-0.309 0.523,-0.547 0.883,-0.711 0.359,-0.16 0.777,-0.242 1.257,-0.242 0.989,0 1.75,0.316 2.289,0.941 0.536,0.625 0.805,1.504 0.805,2.637 0,1.23 -0.305,2.184 -0.906,2.863 -0.606,0.676 -1.453,1.012 -2.547,1.012 -1.336,0 -2.305,-0.445 -2.906,-1.34 -0.606,-0.898 -0.907,-2.34 -0.907,-4.332 0,-1.894 0.368,-3.316 1.11,-4.265 0.738,-0.946 1.848,-1.422 3.328,-1.422 0.332,0 0.68,0.039 1.047,0.109 0.363,0.074 0.734,0.188 1.109,0.344"
         style="fill:#000000;fill-opacity:1;fill-rule:nonzero;stroke:none"
         id="path323" /><path
         d="m 643.688,501.848 c -0.68,0.347 -1.395,0.605 -2.149,0.781 -0.758,0.18 -1.547,0.269 -2.367,0.269 -2.949,0 -5.199,-0.972 -6.75,-2.914 -1.555,-1.945 -2.328,-4.75 -2.328,-8.414 0,-3.691 0.773,-6.504 2.328,-8.449 1.551,-1.941 3.801,-2.914 6.75,-2.914 0.82,0 1.617,0.09 2.383,0.266 0.765,0.179 1.476,0.437 2.133,0.781 v 4.816 c -0.743,-0.691 -1.461,-1.191 -2.157,-1.511 -0.699,-0.317 -1.418,-0.477 -2.156,-0.477 -1.586,0 -2.781,0.629 -3.586,1.883 -0.809,1.258 -1.211,3.125 -1.211,5.605 0,2.457 0.402,4.313 1.211,5.567 0.805,1.258 2,1.883 3.586,1.883 0.738,0 1.457,-0.157 2.156,-0.477 0.696,-0.316 1.414,-0.82 2.157,-1.508 v 4.813"
         style="fill:#000000;fill-opacity:1;fill-rule:nonzero;stroke:none"
         id="path325" /><path
         d="m 650.266,501.535 h 5.953 v 1.91 h -4.188 v 2.028 c 0.164,-0.071 0.352,-0.125 0.555,-0.153 0.203,-0.035 0.414,-0.047 0.633,-0.047 1.082,0 1.961,0.34 2.64,1.02 0.676,0.684 1.016,1.574 1.016,2.664 0,1.16 -0.367,2.07 -1.094,2.738 -0.73,0.664 -1.726,1 -2.984,1 -0.469,0 -0.945,-0.039 -1.422,-0.117 -0.48,-0.082 -0.969,-0.199 -1.469,-0.355 v -1.95 c 0.406,0.196 0.821,0.344 1.25,0.442 0.426,0.101 0.852,0.152 1.282,0.152 0.757,0 1.335,-0.164 1.734,-0.488 0.394,-0.32 0.594,-0.797 0.594,-1.422 0,-0.559 -0.196,-1.012 -0.586,-1.355 -0.391,-0.348 -0.914,-0.52 -1.571,-0.52 -0.386,0 -0.773,0.047 -1.164,0.141 -0.39,0.097 -0.785,0.234 -1.179,0.425 v -6.113"
         style="fill:#000000;fill-opacity:1;fill-rule:nonzero;stroke:none"
         id="path327" /><g
         id="g329"><path
           d="M 521.766,38.383 V 517.832"
           style="fill:none;stroke:#000000;stroke-width:0.966412;stroke-linecap:square;stroke-linejoin:miter;stroke-miterlimit:10;stroke-dasharray:none;stroke-opacity:1"
           id="path331" /></g><path
         d="m 519.766,36.516 h 4 v 3.738 h -4 z"
         style="fill:#000000;fill-opacity:1;fill-rule:nonzero;stroke:none"
         id="path333" /><path
         d="m 521.766,517.832 2.996,-5.609 h -5.996"
         style="fill:#000000;fill-opacity:1;fill-rule:nonzero;stroke:none"
         id="path335" /><g
         id="g337"><path
           d="m 532.758,38.383 v 351.41"
           style="fill:none;stroke:#000000;stroke-width:0.966412;stroke-linecap:square;stroke-linejoin:miter;stroke-miterlimit:10;stroke-dasharray:none;stroke-opacity:1"
           id="path339" /></g><path
         d="m 530.758,36.516 h 4 v 3.738 h -4 z"
         style="fill:#000000;fill-opacity:1;fill-rule:nonzero;stroke:none"
         id="path341" /><path
         d="m 532.758,389.793 2.996,-5.609 h -5.996"
         style="fill:#000000;fill-opacity:1;fill-rule:nonzero;stroke:none"
         id="path343" /><g
         id="g345"><path
           d="M 543.75,38.383 V 241.191"
           style="fill:none;stroke:#d2d2d2;stroke-width:0.966412;stroke-linecap:square;stroke-linejoin:miter;stroke-miterlimit:10;stroke-dasharray:none;stroke-opacity:1"
           id="path347" /></g><path
         d="m 541.75,36.516 h 4 v 3.738 h -4 z"
         style="fill:#d2d2d2;fill-opacity:1;fill-rule:nonzero;stroke:none"
         id="path349" /><path
         d="m 543.75,241.191 2.996,-5.609 h -5.992"
         style="fill:#d2d2d2;fill-opacity:1;fill-rule:nonzero;stroke:none"
         id="path351" /><g
         id="g353"><path
           d="M 554.742,38.383 V 210.348"
           style="fill:none;stroke:#d2d2d2;stroke-width:0.966412;stroke-linecap:square;stroke-linejoin:miter;stroke-miterlimit:10;stroke-dasharray:none;stroke-opacity:1"
           id="path355" /></g><path
         d="m 552.742,36.516 h 4 v 3.738 h -4 z"
         style="fill:#d2d2d2;fill-opacity:1;fill-rule:nonzero;stroke:none"
         id="path357" /><path
         d="m 554.742,210.348 3,-5.606 h -5.996"
         style="fill:#d2d2d2;fill-opacity:1;fill-rule:nonzero;stroke:none"
         id="path359" /><g
         id="g361"><path
           d="m 565.734,38.383 v 72.898"
           style="fill:none;stroke:#d2d2d2;stroke-width:0.966412;stroke-linecap:square;stroke-linejoin:miter;stroke-miterlimit:10;stroke-dasharray:none;stroke-opacity:1"
           id="path363" /></g><path
         d="m 563.734,36.516 h 4 v 3.738 h -4 z"
         style="fill:#d2d2d2;fill-opacity:1;fill-rule:nonzero;stroke:none"
         id="path365" /><path
         d="m 565.734,111.281 3,-5.605 h -5.996"
         style="fill:#d2d2d2;fill-opacity:1;fill-rule:nonzero;stroke:none"
         id="path367" /><g
         id="g369"><path
           d="m 576.727,38.383 v 64.488"
           style="fill:none;stroke:#d2d2d2;stroke-width:0.966412;stroke-linecap:square;stroke-linejoin:miter;stroke-miterlimit:10;stroke-dasharray:none;stroke-opacity:1"
           id="path371" /></g><path
         d="m 574.73,36.516 h 3.996 v 3.738 h -3.996 z"
         style="fill:#d2d2d2;fill-opacity:1;fill-rule:nonzero;stroke:none"
         id="path373" /><path
         d="m 576.727,102.871 3,-5.609 h -5.997"
         style="fill:#d2d2d2;fill-opacity:1;fill-rule:nonzero;stroke:none"
         id="path375" /><g
         id="g377"><path
           d="M 587.719,38.383 V 74.832"
           style="fill:none;stroke:#d2d2d2;stroke-width:0.966412;stroke-linecap:square;stroke-linejoin:miter;stroke-miterlimit:10;stroke-dasharray:none;stroke-opacity:1"
           id="path379" /></g><path
         d="m 585.723,36.516 h 3.996 v 3.738 h -3.996 z"
         style="fill:#d2d2d2;fill-opacity:1;fill-rule:nonzero;stroke:none"
         id="path381" /><path
         d="m 587.719,74.832 3,-5.605 h -5.996"
         style="fill:#d2d2d2;fill-opacity:1;fill-rule:nonzero;stroke:none"
         id="path383" /><g
         id="g385"><path
           d="M 598.711,75.766 V 517.832"
           style="fill:none;stroke:#000000;stroke-width:0.966412;stroke-linecap:square;stroke-linejoin:miter;stroke-miterlimit:10;stroke-dasharray:none;stroke-opacity:1"
           id="path387" /></g><path
         d="m 596.715,73.898 h 3.996 v 3.738 h -3.996 z"
         style="fill:#000000;fill-opacity:1;fill-rule:nonzero;stroke:none"
         id="path389" /><path
         d="m 598.711,517.832 3,-5.609 h -5.996"
         style="fill:#000000;fill-opacity:1;fill-rule:nonzero;stroke:none"
         id="path391" /><g
         id="g393"><path
           d="M 609.703,75.766 V 389.793"
           style="fill:none;stroke:#d2d2d2;stroke-width:0.966412;stroke-linecap:square;stroke-linejoin:miter;stroke-miterlimit:10;stroke-dasharray:none;stroke-opacity:1"
           id="path395" /></g><path
         d="m 607.707,73.898 h 3.996 v 3.738 h -3.996 z"
         style="fill:#d2d2d2;fill-opacity:1;fill-rule:nonzero;stroke:none"
         id="path397" /><path
         d="m 609.703,389.793 3,-5.609 h -5.996"
         style="fill:#d2d2d2;fill-opacity:1;fill-rule:nonzero;stroke:none"
         id="path399" /><g
         id="g401"><path
           d="M 620.695,75.766 V 241.191"
           style="fill:none;stroke:#d2d2d2;stroke-width:0.966412;stroke-linecap:square;stroke-linejoin:miter;stroke-miterlimit:10;stroke-dasharray:none;stroke-opacity:1"
           id="path403" /></g><path
         d="m 618.699,73.898 h 3.996 v 3.738 h -3.996 z"
         style="fill:#d2d2d2;fill-opacity:1;fill-rule:nonzero;stroke:none"
         id="path405" /><path
         d="m 620.695,241.191 3,-5.609 h -5.996"
         style="fill:#d2d2d2;fill-opacity:1;fill-rule:nonzero;stroke:none"
         id="path407" /><g
         id="g409"><path
           d="M 631.688,75.766 V 210.348"
           style="fill:none;stroke:#d2d2d2;stroke-width:0.966412;stroke-linecap:square;stroke-linejoin:miter;stroke-miterlimit:10;stroke-dasharray:none;stroke-opacity:1"
           id="path411" /></g><path
         d="m 629.691,73.898 h 3.996 v 3.738 h -3.996 z"
         style="fill:#d2d2d2;fill-opacity:1;fill-rule:nonzero;stroke:none"
         id="path413" /><path
         d="m 631.688,210.348 3,-5.606 h -5.997"
         style="fill:#d2d2d2;fill-opacity:1;fill-rule:nonzero;stroke:none"
         id="path415" /><g
         id="g417"><path
           d="m 642.684,75.766 v 35.515"
           style="fill:none;stroke:#d2d2d2;stroke-width:0.966412;stroke-linecap:square;stroke-linejoin:miter;stroke-miterlimit:10;stroke-dasharray:none;stroke-opacity:1"
           id="path419" /></g><path
         d="m 640.684,73.898 h 3.996 v 3.738 h -3.996 z"
         style="fill:#d2d2d2;fill-opacity:1;fill-rule:nonzero;stroke:none"
         id="path421" /><path
         d="m 642.684,111.281 2.996,-5.605 h -5.996"
         style="fill:#d2d2d2;fill-opacity:1;fill-rule:nonzero;stroke:none"
         id="path423" /><g
         id="g425"><path
           d="m 653.676,75.766 v 27.105"
           style="fill:none;stroke:#d2d2d2;stroke-width:0.966412;stroke-linecap:square;stroke-linejoin:miter;stroke-miterlimit:10;stroke-dasharray:none;stroke-opacity:1"
           id="path427" /></g><path
         d="m 651.676,73.898 h 3.996 v 3.738 h -3.996 z"
         style="fill:#d2d2d2;fill-opacity:1;fill-rule:nonzero;stroke:none"
         id="path429" /><path
         d="m 653.676,102.871 2.996,-5.609 h -5.996"
         style="fill:#d2d2d2;fill-opacity:1;fill-rule:nonzero;stroke:none"
         id="path431" /><g
         id="g433"><path
           d="M 664.668,103.805 V 517.832"
           style="fill:none;stroke:#000000;stroke-width:0.966412;stroke-linecap:square;stroke-linejoin:miter;stroke-miterlimit:10;stroke-dasharray:none;stroke-opacity:1"
           id="path435" /></g><path
         d="m 662.668,101.938 h 3.996 v 3.738 h -3.996 z"
         style="fill:#000000;fill-opacity:1;fill-rule:nonzero;stroke:none"
         id="path437" /><path
         d="m 664.668,517.832 2.996,-5.609 h -5.996"
         style="fill:#000000;fill-opacity:1;fill-rule:nonzero;stroke:none"
         id="path439" /><g
         id="g441"><path
           d="M 675.66,103.805 V 389.793"
           style="fill:none;stroke:#d2d2d2;stroke-width:0.966412;stroke-linecap:square;stroke-linejoin:miter;stroke-miterlimit:10;stroke-dasharray:none;stroke-opacity:1"
           id="path443" /></g><path
         d="m 673.66,101.938 h 3.996 v 3.738 h -3.996 z"
         style="fill:#d2d2d2;fill-opacity:1;fill-rule:nonzero;stroke:none"
         id="path445" /><path
         d="m 675.66,389.793 2.996,-5.609 h -5.996"
         style="fill:#d2d2d2;fill-opacity:1;fill-rule:nonzero;stroke:none"
         id="path447" /><g
         id="g449"><path
           d="M 686.652,103.805 V 241.191"
           style="fill:none;stroke:#808080;stroke-width:0.966412;stroke-linecap:square;stroke-linejoin:miter;stroke-miterlimit:10;stroke-dasharray:none;stroke-opacity:1"
           id="path451" /></g><path
         d="m 684.652,101.938 h 3.996 v 3.738 h -3.996 z"
         style="fill:#808080;fill-opacity:1;fill-rule:nonzero;stroke:none"
         id="path453" /><path
         d="m 686.652,241.191 2.996,-5.609 h -5.996"
         style="fill:#808080;fill-opacity:1;fill-rule:nonzero;stroke:none"
         id="path455" /><g
         id="g457"><path
           d="M 697.645,103.805 V 210.348"
           style="fill:none;stroke:#d2d2d2;stroke-width:0.966412;stroke-linecap:square;stroke-linejoin:miter;stroke-miterlimit:10;stroke-dasharray:none;stroke-opacity:1"
           id="path459" /></g><path
         d="m 695.645,101.938 h 3.996 v 3.738 h -3.996 z"
         style="fill:#d2d2d2;fill-opacity:1;fill-rule:nonzero;stroke:none"
         id="path461" /><path
         d="m 697.645,210.348 2.996,-5.606 h -5.996"
         style="fill:#d2d2d2;fill-opacity:1;fill-rule:nonzero;stroke:none"
         id="path463" /><g
         id="g465"><path
           d="M 708.637,112.215 V 517.832"
           style="fill:none;stroke:#000000;stroke-width:0.966412;stroke-linecap:square;stroke-linejoin:miter;stroke-miterlimit:10;stroke-dasharray:none;stroke-opacity:1"
           id="path467" /></g><path
         d="m 706.637,110.348 h 4 v 3.738 h -4 z"
         style="fill:#000000;fill-opacity:1;fill-rule:nonzero;stroke:none"
         id="path469" /><path
         d="m 708.637,517.832 2.996,-5.609 h -5.996"
         style="fill:#000000;fill-opacity:1;fill-rule:nonzero;stroke:none"
         id="path471" /><g
         id="g473"><path
           d="M 719.629,112.215 V 389.793"
           style="fill:none;stroke:#000000;stroke-width:0.966412;stroke-linecap:square;stroke-linejoin:miter;stroke-miterlimit:10;stroke-dasharray:none;stroke-opacity:1"
           id="path475" /></g><path
         d="m 717.629,110.348 h 4 v 3.738 h -4 z"
         style="fill:#000000;fill-opacity:1;fill-rule:nonzero;stroke:none"
         id="path477" /><path
         d="m 719.629,389.793 2.996,-5.609 h -5.996"
         style="fill:#000000;fill-opacity:1;fill-rule:nonzero;stroke:none"
         id="path479" /><g
         id="g481"><path
           d="M 730.621,112.215 V 241.191"
           style="fill:none;stroke:#c0c0c0;stroke-width:0.966412;stroke-linecap:square;stroke-linejoin:miter;stroke-miterlimit:10;stroke-dasharray:none;stroke-opacity:1"
           id="path483" /></g><path
         d="m 728.621,110.348 h 4 v 3.738 h -4 z"
         style="fill:#c0c0c0;fill-opacity:1;fill-rule:nonzero;stroke:none"
         id="path485" /><path
         d="m 730.621,241.191 2.996,-5.609 h -5.992"
         style="fill:#c0c0c0;fill-opacity:1;fill-rule:nonzero;stroke:none"
         id="path487" /><g
         id="g489"><path
           d="m 741.613,112.215 v 98.133"
           style="fill:none;stroke:#d2d2d2;stroke-width:0.966412;stroke-linecap:square;stroke-linejoin:miter;stroke-miterlimit:10;stroke-dasharray:none;stroke-opacity:1"
           id="path491" /></g><path
         d="m 739.613,110.348 h 4 v 3.738 h -4 z"
         style="fill:#d2d2d2;fill-opacity:1;fill-rule:nonzero;stroke:none"
         id="path493" /><path
         d="m 741.613,210.348 3,-5.606 h -5.996"
         style="fill:#d2d2d2;fill-opacity:1;fill-rule:nonzero;stroke:none"
         id="path495" /><g
         id="g497"><path
           d="M 752.605,211.285 V 517.832"
           style="fill:none;stroke:#000000;stroke-width:0.966412;stroke-linecap:square;stroke-linejoin:miter;stroke-miterlimit:10;stroke-dasharray:none;stroke-opacity:1"
           id="path499" /></g><path
         d="m 750.605,209.414 h 4 v 3.738 h -4 z"
         style="fill:#000000;fill-opacity:1;fill-rule:nonzero;stroke:none"
         id="path501" /><path
         d="m 752.605,517.832 3,-5.609 h -5.996"
         style="fill:#000000;fill-opacity:1;fill-rule:nonzero;stroke:none"
         id="path503" /><g
         id="g505"><path
           d="M 763.598,211.285 V 389.793"
           style="fill:none;stroke:#808080;stroke-width:0.966412;stroke-linecap:square;stroke-linejoin:miter;stroke-miterlimit:10;stroke-dasharray:none;stroke-opacity:1"
           id="path507" /></g><path
         d="m 761.602,209.414 h 3.996 v 3.738 h -3.996 z"
         style="fill:#808080;fill-opacity:1;fill-rule:nonzero;stroke:none"
         id="path509" /><path
         d="m 763.598,389.793 3,-5.609 h -5.996"
         style="fill:#808080;fill-opacity:1;fill-rule:nonzero;stroke:none"
         id="path511" /><g
         id="g513"><path
           d="M 774.59,242.125 V 517.832"
           style="fill:none;stroke:#000000;stroke-width:0.966412;stroke-linecap:square;stroke-linejoin:miter;stroke-miterlimit:10;stroke-dasharray:none;stroke-opacity:1"
           id="path515" /></g><path
         d="m 772.594,240.258 h 3.996 v 3.738 h -3.996 z"
         style="fill:#000000;fill-opacity:1;fill-rule:nonzero;stroke:none"
         id="path517" /><path
         d="m 774.59,517.832 3,-5.609 h -5.996"
         style="fill:#000000;fill-opacity:1;fill-rule:nonzero;stroke:none"
         id="path519" /><g
         id="g521"><path
           d="M 785.582,242.125 V 389.793"
           style="fill:none;stroke:#d2d2d2;stroke-width:0.966412;stroke-linecap:square;stroke-linejoin:miter;stroke-miterlimit:10;stroke-dasharray:none;stroke-opacity:1"
           id="path523" /></g><path
         d="m 783.586,240.258 h 3.996 v 3.738 h -3.996 z"
         style="fill:#d2d2d2;fill-opacity:1;fill-rule:nonzero;stroke:none"
         id="path525" /><path
         d="m 785.582,389.793 3,-5.609 h -5.996"
         style="fill:#d2d2d2;fill-opacity:1;fill-rule:nonzero;stroke:none"
         id="path527" /><g
         id="g529"><path
           d="M 796.574,390.727 V 517.832"
           style="fill:none;stroke:#000000;stroke-width:0.966412;stroke-linecap:square;stroke-linejoin:miter;stroke-miterlimit:10;stroke-dasharray:none;stroke-opacity:1"
           id="path531" /></g><path
         d="m 794.578,388.855 h 3.996 v 3.738 h -3.996 z"
         style="fill:#000000;fill-opacity:1;fill-rule:nonzero;stroke:none"
         id="path533" /><path
         d="m 796.574,517.832 3,-5.609 h -5.996"
         style="fill:#000000;fill-opacity:1;fill-rule:nonzero;stroke:none"
         id="path535" /><path
         d="m 6.383,77.277 h -2 V 70.34 H 3.242 L 1.027,71.32 1.32,72.078 3.383,71.16 v 6.117 H 1.168 v 0.817 h 5.215 z m 3.711,-6.965 -2.903,8.282 h 1 l 2.903,-8.282 z m 2.058,0.629 0.391,0.7 C 13.043,71.336 13.605,71 14.465,71 c 1,0 1.719,0.48 1.719,1.414 0,1.098 -0.938,2.074 -3.844,5.082 v 0.598 h 4.918 V 77.277 H 13.73 c 2.875,-3.007 3.434,-3.797 3.434,-4.863 0,-1.355 -1.074,-2.234 -2.543,-2.234 -1.172,0 -1.687,0.308 -2.469,0.761 z m 9.602,0.395 v 2.73 H 18.82 v 0.817 h 2.934 v 2.762 h 0.875 v -2.762 h 2.918 v -0.817 h -2.918 v -2.73 h -0.875"
         style="fill:#404040;fill-opacity:1;fill-rule:nonzero;stroke:none"
         id="path537" /></g></g></svg>
