<?xml version="1.0" encoding="UTF-8" standalone="no"?>
<!-- Created with Inkscape (http://www.inkscape.org/) -->
<svg xmlns:dc="http://purl.org/dc/elements/1.1/" xmlns:cc="http://creativecommons.org/ns#" xmlns:rdf="http://www.w3.org/1999/02/22-rdf-syntax-ns#" xmlns:svg="http://www.w3.org/2000/svg" xmlns="http://www.w3.org/2000/svg" xmlns:sodipodi="http://sodipodi.sourceforge.net/DTD/sodipodi-0.dtd" xmlns:inkscape="http://www.inkscape.org/namespaces/inkscape" width="175" height="125" id="svg2" sodipodi:version="0.32" inkscape:version="0.46+devel, revision 20135" version="1.0" sodipodi:docname="N-Type Semiconductor Bands.svg" inkscape:output_extension="org.inkscape.output.svg.inkscape" sodipodi:modified="true">
  <defs id="defs4">
    <inkscape:perspective sodipodi:type="inkscape:persp3d" inkscape:vp_x="0 : 75 : 1" inkscape:vp_y="0 : 1000 : 0" inkscape:vp_z="250 : 75 : 1" inkscape:persp3d-origin="125 : 50 : 1" id="perspective2796"/>
    <inkscape:perspective id="perspective2806" inkscape:persp3d-origin="0.5 : 0.33333333 : 1" inkscape:vp_z="1 : 0.5 : 1" inkscape:vp_y="0 : 1000 : 0" inkscape:vp_x="0 : 0.5 : 1" sodipodi:type="inkscape:persp3d"/>
    <inkscape:perspective id="perspective2828" inkscape:persp3d-origin="0.5 : 0.33333333 : 1" inkscape:vp_z="1 : 0.5 : 1" inkscape:vp_y="0 : 1000 : 0" inkscape:vp_x="0 : 0.5 : 1" sodipodi:type="inkscape:persp3d"/>
    <inkscape:perspective id="perspective2850" inkscape:persp3d-origin="0.5 : 0.33333333 : 1" inkscape:vp_z="1 : 0.5 : 1" inkscape:vp_y="0 : 1000 : 0" inkscape:vp_x="0 : 0.5 : 1" sodipodi:type="inkscape:persp3d"/>
    <inkscape:perspective id="perspective2850-4" inkscape:persp3d-origin="0.5 : 0.33333333 : 1" inkscape:vp_z="1 : 0.5 : 1" inkscape:vp_y="0 : 1000 : 0" inkscape:vp_x="0 : 0.5 : 1" sodipodi:type="inkscape:persp3d"/>
    <inkscape:perspective id="perspective2850-9" inkscape:persp3d-origin="0.5 : 0.33333333 : 1" inkscape:vp_z="1 : 0.5 : 1" inkscape:vp_y="0 : 1000 : 0" inkscape:vp_x="0 : 0.5 : 1" sodipodi:type="inkscape:persp3d"/>
    <inkscape:perspective id="perspective2850-8" inkscape:persp3d-origin="0.5 : 0.33333333 : 1" inkscape:vp_z="1 : 0.5 : 1" inkscape:vp_y="0 : 1000 : 0" inkscape:vp_x="0 : 0.5 : 1" sodipodi:type="inkscape:persp3d"/>
    <inkscape:perspective id="perspective2850-2" inkscape:persp3d-origin="0.5 : 0.33333333 : 1" inkscape:vp_z="1 : 0.5 : 1" inkscape:vp_y="0 : 1000 : 0" inkscape:vp_x="0 : 0.5 : 1" sodipodi:type="inkscape:persp3d"/>
    <inkscape:perspective id="perspective2850-5" inkscape:persp3d-origin="0.5 : 0.33333333 : 1" inkscape:vp_z="1 : 0.5 : 1" inkscape:vp_y="0 : 1000 : 0" inkscape:vp_x="0 : 0.5 : 1" sodipodi:type="inkscape:persp3d"/>
    <inkscape:perspective id="perspective2850-7" inkscape:persp3d-origin="0.5 : 0.33333333 : 1" inkscape:vp_z="1 : 0.5 : 1" inkscape:vp_y="0 : 1000 : 0" inkscape:vp_x="0 : 0.5 : 1" sodipodi:type="inkscape:persp3d"/>
  </defs>
  <sodipodi:namedview id="base" pagecolor="#ffffff" bordercolor="#666666" borderopacity="1.0" gridtolerance="10000" guidetolerance="10" objecttolerance="10" inkscape:pageopacity="0.0" inkscape:pageshadow="2" inkscape:zoom="2" inkscape:cx="152.95017" inkscape:cy="28.717481" inkscape:document-units="px" inkscape:current-layer="layer1" width="250px" height="150px" showgrid="true" inkscape:object-points="true" inkscape:grid-points="true" inkscape:window-width="1337" inkscape:window-height="874" inkscape:window-x="63" inkscape:window-y="0">
    <inkscape:grid id="GridFromPre046Settings" type="xygrid" originx="0px" originy="0px" spacingx="5px" spacingy="5px" color="#0000ff" empcolor="#0000ff" opacity="0.2" empopacity="0.4" empspacing="5" visible="true" enabled="true"/>
  </sodipodi:namedview>
  <metadata id="metadata7">
    <rdf:RDF>
      <cc:Work rdf:about="">
        <dc:format>image/svg+xml</dc:format>
        <dc:type rdf:resource="http://purl.org/dc/dcmitype/StillImage"/>
        <dc:title/>
      </cc:Work>
    </rdf:RDF>
  </metadata>
  <g inkscape:label="Layer 1" inkscape:groupmode="layer" id="layer1">
    <rect style="fill:#e9b96e;fill-opacity:1;fill-rule:nonzero;stroke:none" id="rect2174" width="125" height="35" x="45" y="15"/>
    <rect style="fill:#729fcf;fill-opacity:1;fill-rule:nonzero;stroke:none" id="rect2172" width="125" height="35" x="45" y="80"/>
    <path style="fill:none;stroke:#000000;stroke-width:2;stroke-linecap:butt;stroke-linejoin:miter;stroke-opacity:1" d="M 25,115 25,15" id="path2160"/>
    <path style="fill:none;stroke:#000000;stroke-width:2;stroke-linecap:butt;stroke-linejoin:miter;stroke-opacity:1" d="m 45,50 125,0" id="path2164"/>
    <path style="fill:none;stroke:#000000;stroke-width:2;stroke-linecap:butt;stroke-linejoin:miter;stroke-opacity:1" d="m 45,80 125,0" id="path2166"/>
    <text xml:space="preserve" style="font-size:20px;font-style:italic;font-variant:normal;font-weight:normal;font-stretch:normal;text-align:start;line-height:100%;writing-mode:lr-tb;text-anchor:start;fill:#000000;fill-opacity:1;stroke:none;font-family:DejaVu Serif;-inkscape-font-specification:DejaVu Serif" x="5" y="72.25" id="text4136" sodipodi:linespacing="100%"><tspan sodipodi:role="line" id="tspan4138" x="5" y="72.25">E</tspan></text>
    <path sodipodi:type="arc" style="fill:#000000;fill-opacity:1;fill-rule:nonzero;stroke:none" id="path4192" sodipodi:cx="60" sodipodi:cy="30" sodipodi:rx="5" sodipodi:ry="5" d="m 65,30 a 5,5 0 1 1 -10,0 5,5 0 1 1 10,0 z" transform="translate(-5,0)"/>
    <path sodipodi:type="arc" style="fill:#ffffff;fill-opacity:1;fill-rule:nonzero;stroke:#000000;stroke-width:2;stroke-linecap:square;stroke-miterlimit:4;stroke-opacity:1;stroke-dasharray:none;stroke-dashoffset:0" id="path4194" sodipodi:cx="60" sodipodi:cy="30" sodipodi:rx="5" sodipodi:ry="5" d="m 65,30 a 5,5 0 1 1 -10,0 5,5 0 1 1 10,0 z" transform="translate(10,60)"/>
    <path style="color:#000000;fill:#000000;fill-opacity:1;stroke:#000000;stroke-width:1.99999988;stroke-linecap:square;stroke-linejoin:miter;stroke-miterlimit:4;stroke-opacity:1;stroke-dasharray:none;stroke-dashoffset:0;marker:none;visibility:visible;display:inline;overflow:visible;enable-background:accumulate" d="m 25,10 -3.625,14.5 7.25,0 L 25,10" id="path2923-7"/>
    <path sodipodi:type="arc" style="fill:#ffffff;fill-opacity:1;fill-rule:nonzero;stroke:#000000;stroke-width:2;stroke-linecap:square;stroke-miterlimit:4;stroke-opacity:1;stroke-dasharray:none;stroke-dashoffset:0" id="path4194-1" sodipodi:cx="60" sodipodi:cy="30" sodipodi:rx="5" sodipodi:ry="5" d="m 65,30 a 5,5 0 1 1 -10,0 5,5 0 1 1 10,0 z" transform="translate(85,60)"/>
    <path sodipodi:type="arc" style="fill:#000000;fill-opacity:1;fill-rule:nonzero;stroke:none" id="path4192-7" sodipodi:cx="60" sodipodi:cy="30" sodipodi:rx="5" sodipodi:ry="5" d="m 65,30 a 5,5 0 1 1 -10,0 5,5 0 1 1 10,0 z" transform="translate(10,10)"/>
    <path sodipodi:type="arc" style="fill:#000000;fill-opacity:1;fill-rule:nonzero;stroke:none" id="path4192-0" sodipodi:cx="60" sodipodi:cy="30" sodipodi:rx="5" sodipodi:ry="5" d="m 65,30 a 5,5 0 1 1 -10,0 5,5 0 1 1 10,0 z" transform="translate(25,0)"/>
    <path sodipodi:type="arc" style="fill:#000000;fill-opacity:1;fill-rule:nonzero;stroke:none" id="path4192-4" sodipodi:cx="60" sodipodi:cy="30" sodipodi:rx="5" sodipodi:ry="5" d="m 65,30 a 5,5 0 1 1 -10,0 5,5 0 1 1 10,0 z" transform="translate(40,10)"/>
    <path sodipodi:type="arc" style="fill:#000000;fill-opacity:1;fill-rule:nonzero;stroke:none" id="path4192-8" sodipodi:cx="60" sodipodi:cy="30" sodipodi:rx="5" sodipodi:ry="5" d="m 65,30 a 5,5 0 1 1 -10,0 5,5 0 1 1 10,0 z" transform="translate(55,0)"/>
    <path sodipodi:type="arc" style="fill:#000000;fill-opacity:1;fill-rule:nonzero;stroke:none" id="path4192-45" sodipodi:cx="60" sodipodi:cy="30" sodipodi:rx="5" sodipodi:ry="5" d="m 65,30 a 5,5 0 1 1 -10,0 5,5 0 1 1 10,0 z" transform="translate(70,10)"/>
    <path sodipodi:type="arc" style="fill:#000000;fill-opacity:1;fill-rule:nonzero;stroke:none" id="path4192-1" sodipodi:cx="60" sodipodi:cy="30" sodipodi:rx="5" sodipodi:ry="5" d="m 65,30 a 5,5 0 1 1 -10,0 5,5 0 1 1 10,0 z" transform="translate(85,0)"/>
    <path sodipodi:type="arc" style="fill:#000000;fill-opacity:1;fill-rule:nonzero;stroke:none" id="path4192-11" sodipodi:cx="60" sodipodi:cy="30" sodipodi:rx="5" sodipodi:ry="5" d="m 65,30 a 5,5 0 1 1 -10,0 5,5 0 1 1 10,0 z" transform="translate(100,10)"/>
  </g>
</svg>